<?xml version="1.0" encoding="utf-8"?>
<!-- Generator: Adobe Illustrator 24.1.0, SVG Export Plug-In . SVG Version: 6.00 Build 0)  -->
<svg version="1.1" id="Layer_1" xmlns="http://www.w3.org/2000/svg" xmlns:xlink="http://www.w3.org/1999/xlink" x="0px" y="0px"
	 viewBox="0 0 600 600" style="enable-background:new 0 0 600 600;" xml:space="preserve">
<style type="text/css">
	.st0{fill:#B93600;}
</style>
<path class="st0" d="M514.8,130.3c-5,12.5-42.6,87.6-50.1,90.1c-7.5,2.5-12.5-5-12.5-5c-37.6-70.1-115.2-95.1-115.2-95.1
	C329.5,37.7,299.5,7.6,299.5,7.6s-30,30-37.6,112.7c0,0-77.6,25-115.2,95.1c0,0-5,7.5-12.5,5c-7.5-2.5-45.1-77.6-50.1-90.1
	c-5-12.5-37.6,115.2,30,232.8l7.5,40.1c0,0,20,100.1,22.5,105.1c2.5,5,30,32.5,37.6,37.6c7.5,5,72.6,52.6,75.1,45.1
	c2.5-7.5-71.3-123.9-71.3-131.4c0-7.5,0-105.1,0-105.1l50.1,15l5,7.5l30,2.5c0,0,12.5,90.1,17.5,92.6c0,0,5.5,2.5,11.3,2.1
	c5.7,0.4,11.3-2.1,11.3-2.1c5-2.5,17.5-92.6,17.5-92.6l30-2.5l5-7.5l50.1-15c0,0,0,97.6,0,105.1c0,7.5-73.8,123.9-71.3,131.4
	c2.5,7.5,67.6-40.1,75.1-45.1c7.5-5,35-32.5,37.6-37.6c2.5-5,22.5-105.1,22.5-105.1l7.5-40.1C552.3,245.4,519.8,117.8,514.8,130.3z"
	/>
</svg>
